<svg width="28" height="20" viewBox="0 0 28 20" fill="none" xmlns="http://www.w3.org/2000/svg">
<path d="M28 16.6666C28 17.2512 27.8273 17.7931 27.5508 18.2699L18.71 8.84943L27.4549 1.56276C27.7951 2.0769 28 2.68084 28 3.33348V16.6666ZM14 10.5599L26.1683 0.419996C25.6689 0.159656 25.1066 0 24.5001 0H3.49998C2.89267 0 2.3302 0.159656 1.83289 0.419996L14 10.5599ZM17.3924 9.94647L14.5758 12.2951C14.4111 12.4318 14.2059 12.5 14 12.5C13.794 12.5 13.5889 12.4318 13.4241 12.2951L10.6069 9.94636L1.65428 19.4873C2.1909 19.8079 2.81979 20 3.49992 20H24.5001C25.1801 20 25.8093 19.8079 26.3457 19.4873L17.3924 9.94647ZM0.545214 1.5627C0.20509 2.07684 0 2.68079 0 3.33348V16.6666C0 17.2512 0.171851 17.7932 0.449479 18.27L9.28919 8.84784L0.545214 1.5627Z" fill="#C6C6C6"/>
</svg>
