<svg width="23" height="20" viewBox="0 0 23 20" fill="none" xmlns="http://www.w3.org/2000/svg">
<path d="M21.5297 0.161255L1.06931 8.33205C-0.311452 8.85083 -0.311452 9.7587 0.818263 10.0181L5.96474 11.7041L7.97313 17.9295C8.22417 18.578 8.09865 18.8374 8.72627 18.8374C9.22837 18.8374 9.47941 18.578 9.73046 18.3186C9.85598 18.1889 10.9857 17.0216 12.2409 15.7247L17.5129 19.7452C18.5171 20.264 19.1448 20.0046 19.3958 18.8374L22.9105 1.84729C23.287 0.420645 22.4084 -0.357525 21.5297 0.161255ZM18.8937 4.05211L9.10284 13.2605L8.72627 17.5404L6.71789 11.315L18.2661 3.79272C18.7682 3.40363 19.2703 3.66302 18.8937 4.05211Z" fill="#C6C6C6"/>
</svg>
