<svg width="22" height="24" viewBox="0 0 22 24" fill="none" xmlns="http://www.w3.org/2000/svg">
<path d="M19.5556 2.52632H17.1111V1.26316C17.1111 0.928148 16.9823 0.606857 16.7531 0.369969C16.5239 0.133081 16.213 0 15.8889 0C15.5647 0 15.2539 0.133081 15.0246 0.369969C14.7954 0.606857 14.6667 0.928148 14.6667 1.26316V2.52632H7.33333V1.26316C7.33333 0.928148 7.20456 0.606857 6.97535 0.369969C6.74614 0.133081 6.43526 0 6.11111 0C5.78696 0 5.47608 0.133081 5.24687 0.369969C5.01766 0.606857 4.88889 0.928148 4.88889 1.26316V2.52632H2.44444C1.1 2.52632 0 3.66316 0 5.05263V7.62947H22V5.05263C22 3.66316 20.9 2.52632 19.5556 2.52632ZM19.5556 9.5242H0V21.4737C0 22.8632 1.1 24 2.44444 24H19.5556C20.9 24 22 22.8632 22 21.4737V9.5242H19.5556ZM15.8767 13.3011H15.8889C16.5611 13.3011 17.1111 13.8568 17.1111 14.5642C17.1111 15.2589 16.5611 15.8274 15.8889 15.8274C15.2167 15.8274 14.6667 15.2589 14.6667 14.5642C14.6667 13.8568 15.2045 13.3011 15.8767 13.3011ZM11 13.3011C11.6844 13.3011 12.2222 13.8568 12.2222 14.5642C12.2222 15.2589 11.6844 15.8274 11 15.8274C10.3278 15.8274 9.77778 15.2589 9.77778 14.5642C9.77778 13.8568 10.3156 13.3011 11 13.3011ZM11 17.7221C11.6844 17.7221 12.2222 18.2905 12.2222 18.9853C12.2222 19.68 11.6844 20.2484 11 20.2484C10.3278 20.2484 9.77778 19.68 9.77778 18.9853C9.77778 18.2905 10.3156 17.7221 11 17.7221ZM6.11111 13.3011C6.78333 13.3011 7.33333 13.8568 7.33333 14.5642C7.33333 15.2589 6.79555 15.8274 6.12333 15.8274H6.11111C5.43889 15.8274 4.88889 15.2589 4.88889 14.5642C4.88889 13.8568 5.43889 13.3011 6.11111 13.3011ZM6.11111 17.7221C6.78333 17.7221 7.33333 18.2905 7.33333 18.9853C7.33333 19.68 6.79555 20.2484 6.12333 20.2484H6.11111C5.43889 20.2484 4.88889 19.68 4.88889 18.9853C4.88889 18.2905 5.43889 17.7221 6.11111 17.7221Z" fill="#66BC8F"/>
</svg>
