<svg width="30" height="30" viewBox="0 0 30 30" fill="none" xmlns="http://www.w3.org/2000/svg">
<g clip-path="url(#clip0_3609_2383)">
<path fill-rule="evenodd" clip-rule="evenodd" d="M17.3077 21.9219V24.2308C17.3077 25.1492 16.9431 26.0296 16.2935 26.6781C15.645 27.3277 14.7646 27.6923 13.8462 27.6923C11.3469 27.6923 8.26846 27.6923 5.76923 27.6923C4.85077 27.6923 3.97038 27.3277 3.32192 26.6781C2.67231 26.0296 2.30769 25.1492 2.30769 24.2308V5.76923C2.30769 4.85077 2.67231 3.97038 3.32192 3.32192C3.97038 2.67231 4.85077 2.30769 5.76923 2.30769C8.26846 2.30769 11.3469 2.30769 13.8462 2.30769C15.7581 2.30769 17.3077 3.85731 17.3077 5.76923V8.00885C17.3077 8.64577 17.8246 9.16269 18.4615 9.16269C19.0985 9.16269 19.6154 8.64577 19.6154 8.00885V5.76923C19.6154 2.58346 17.0319 0 13.8462 0C11.3469 0 8.26846 0 5.76923 0C4.23923 0 2.77154 0.608077 1.68923 1.68923C0.608077 2.77154 0 4.23923 0 5.76923C0 10.8912 0 19.1088 0 24.2308C0 25.7608 0.608077 27.2285 1.68923 28.3108C2.77154 29.3919 4.23923 30 5.76923 30C8.26846 30 11.3469 30 13.8462 30C15.3762 30 16.8438 29.3919 17.9262 28.3108C19.0073 27.2285 19.6154 25.7608 19.6154 24.2308C19.6154 22.9592 19.6154 21.9219 19.6154 21.9219C19.6154 21.285 19.0985 20.7681 18.4615 20.7681C17.8246 20.7681 17.3077 21.285 17.3077 21.9219Z" fill="#C6C6C6"/>
<path fill-rule="evenodd" clip-rule="evenodd" d="M27.0408 13.8461H7.18314C6.54622 13.8461 6.0293 14.363 6.0293 14.9999C6.0293 15.6368 6.54622 16.1538 7.18314 16.1538H27.0812L22.5039 20.7311C22.0528 21.1822 22.0528 21.9126 22.5039 22.3638C22.9539 22.8138 23.6854 22.8138 24.1355 22.3638C24.1355 22.3638 27.0974 19.4018 29.0312 17.468C30.3824 16.1157 30.3824 13.9245 29.0312 12.5722L24.1355 7.6776C23.6854 7.22644 22.9539 7.22644 22.5039 7.6776C22.0528 8.1276 22.0528 8.85914 22.5039 9.30914L27.0408 13.8461Z" fill="#C6C6C6"/>
</g>
<defs>
<clipPath id="clip0_3609_2383">
<rect width="30" height="30" fill="white"/>
</clipPath>
</defs>
</svg>
