<svg width="24" height="24" viewBox="0 0 24 24" fill="none" xmlns="http://www.w3.org/2000/svg">
<path fill-rule="evenodd" clip-rule="evenodd" d="M18.895 3.44911L18.8925 3.44992C18.3242 3.7706 17.6228 3.7706 17.0546 3.44992C16.4864 3.13005 16.1356 2.53716 16.1356 1.8958V1.89338C16.1356 1.39095 15.9313 0.909531 15.5674 0.55412C15.2043 0.199515 14.7113 0 14.1969 0C12.9752 0 11.0248 0 9.80314 0C9.28867 0 8.7957 0.199515 8.43259 0.55412C8.06865 0.909531 7.86435 1.39095 7.86435 1.89338V1.8958C7.86435 2.53716 7.51365 3.13005 6.94541 3.44992C6.37717 3.7706 5.67577 3.7706 5.10753 3.44992L5.10505 3.44911C4.66005 3.1979 4.13069 3.13005 3.63358 3.2601C3.1373 3.38934 2.71381 3.70678 2.45658 4.14216C1.84615 5.17528 0.870141 6.82472 0.259719 7.85783C0.00248165 8.29241 -0.0669972 8.80937 0.0661707 9.29483C0.199339 9.77948 0.524401 10.1931 0.969397 10.4443L0.971878 10.4459C1.54012 10.7666 1.89082 11.3586 1.89082 12C1.89082 12.6414 1.54012 13.2334 0.971878 13.5541L0.969397 13.5557C0.524401 13.8069 0.199339 14.2205 0.0661707 14.7052C-0.0669972 15.1906 0.00248165 15.7076 0.259719 16.1422C0.870141 17.1753 1.84615 18.8247 2.45658 19.8578C2.71381 20.2932 3.1373 20.6107 3.63358 20.7399C4.13069 20.8699 4.66005 20.8021 5.10505 20.5509L5.10753 20.5501C5.67577 20.2294 6.37717 20.2294 6.94541 20.5501C7.51365 20.8699 7.86435 21.4628 7.86435 22.1042V22.1066C7.86435 22.609 8.06865 23.0905 8.43259 23.4459C8.7957 23.8005 9.28867 24 9.80314 24C11.0248 24 12.9752 24 14.1969 24C14.7113 24 15.2043 23.8005 15.5674 23.4459C15.9313 23.0905 16.1356 22.609 16.1356 22.1066V22.1042C16.1356 21.4628 16.4864 20.8699 17.0546 20.5501C17.6228 20.2294 18.3242 20.2294 18.8925 20.5501L18.895 20.5509C19.34 20.8021 19.8693 20.8699 20.3664 20.7399C20.8627 20.6107 21.2862 20.2932 21.5434 19.8578C22.1538 18.8247 23.1299 17.1753 23.7403 16.1422C23.9975 15.7076 24.067 15.1906 23.9338 14.7052C23.8007 14.2205 23.4756 13.8069 23.0306 13.5557L23.0281 13.5541C22.4599 13.2334 22.1092 12.6414 22.1092 12C22.1092 11.3586 22.4599 10.7666 23.0281 10.4459L23.0306 10.4443C23.4756 10.1931 23.8007 9.77948 23.9338 9.29483C24.067 8.80937 23.9975 8.29241 23.7403 7.85783C23.1299 6.82472 22.1538 5.17528 21.5434 4.14216C21.2862 3.70678 20.8627 3.38934 20.3664 3.2601C19.8693 3.13005 19.34 3.1979 18.895 3.44911ZM12 6.34572C8.8048 6.34572 6.21009 8.87964 6.21009 12C6.21009 15.1204 8.8048 17.6543 12 17.6543C15.1952 17.6543 17.7899 15.1204 17.7899 12C17.7899 8.87964 15.1952 6.34572 12 6.34572Z" fill="#444444"/>
</svg>
