<svg width="15" height="15" viewBox="0 0 15 15" fill="none" xmlns="http://www.w3.org/2000/svg">
<path fill-rule="evenodd" clip-rule="evenodd" d="M7.4925 0C3.3525 0 0 3.36 0 7.5C0 11.64 3.3525 15 7.4925 15C11.64 15 15 11.64 15 7.5C15 3.36 11.64 0 7.4925 0ZM7.5 13.5C4.185 13.5 1.5 10.815 1.5 7.5C1.5 4.185 4.185 1.5 7.5 1.5C10.815 1.5 13.5 4.185 13.5 7.5C13.5 10.815 10.815 13.5 7.5 13.5ZM7.335 3.75H7.29C6.99 3.75 6.75 3.99 6.75 4.29V7.83C6.75 8.0925 6.885 8.34 7.1175 8.475L10.23 10.3425C10.485 10.4925 10.815 10.4175 10.965 10.1625C11.1225 9.9075 11.04 9.57 10.7775 9.42L7.875 7.695V4.29C7.875 3.99 7.635 3.75 7.335 3.75Z" fill="#444444"/>
</svg>
