<svg width="18" height="20" viewBox="0 0 18 20" fill="none" xmlns="http://www.w3.org/2000/svg">
<path d="M0 17.07V15.6329C0.0272808 15.1093 0.200537 14.603 0.50103 14.1686C0.801532 13.7343 1.21784 13.3885 1.70495 13.1686C6.38655 11.3314 11.6135 11.3314 16.295 13.1686C16.7821 13.3885 17.1984 13.7343 17.4989 14.1686C17.7995 14.603 17.9727 15.1093 18 15.6329V17.07C17.9999 17.4551 17.9219 17.8366 17.7707 18.1924C17.6197 18.5481 17.3981 18.8713 17.1192 19.1434C16.84 19.4156 16.5088 19.6313 16.1444 19.7783C15.7799 19.9251 15.3893 20.0006 14.9951 20H3.00487C2.6106 20.0006 2.22008 19.9251 1.85562 19.7783C1.49118 19.6313 1.15995 19.4156 0.880887 19.1434C0.601822 18.8713 0.380382 18.5481 0.229232 18.1924C0.0780888 17.8366 0.000191552 17.4551 0 17.07ZM9 2.08953e-07C8.01088 -0.000282354 7.04388 0.28602 6.2213 0.822697C5.39873 1.35937 4.75754 2.12231 4.37881 3.01504C4.00009 3.90777 3.90085 4.89016 4.09363 5.838C4.28643 6.78583 4.7626 7.65651 5.46191 8.33993C6.16123 9.02336 7.05229 9.48881 8.02238 9.67744C8.9925 9.86607 9.99807 9.76941 10.9119 9.39966C11.8258 9.02991 12.6069 8.4037 13.1565 7.60021C13.706 6.79674 13.9993 5.85209 13.9993 4.88571C13.9995 4.24419 13.8704 3.6089 13.6192 3.01614C13.3681 2.42339 12.9998 1.88477 12.5356 1.43109C12.0713 0.97738 11.5201 0.617478 10.9135 0.371931C10.3069 0.126383 9.65664 1.81513e-07 9 2.08953e-07Z" fill="#444444"/>
</svg>
